<?xml version="1.0" encoding="utf-8"?>
<!-- Generator: Adobe Illustrator 16.0.0, SVG Export Plug-In . SVG Version: 6.00 Build 0)  -->
<!DOCTYPE svg PUBLIC "-//W3C//DTD SVG 1.1//EN" "http://www.w3.org/Graphics/SVG/1.1/DTD/svg11.dtd">
<svg version="1.1" id="Layer_1" xmlns="http://www.w3.org/2000/svg" xmlns:xlink="http://www.w3.org/1999/xlink" x="0px" y="0px"
	 width="24px" height="24px" viewBox="0 0 24 24" enable-background="new 0 0 24 24" xml:space="preserve">
<path fill="#741CE5" d="M23.788,20.016c0,2.084-1.688,3.773-3.772,3.773H3.983c-2.083,0-3.772-1.689-3.772-3.773V3.984
	c0-2.083,1.689-3.772,3.772-3.772h16.033c2.084,0,3.771,1.689,3.771,3.772L23.788,20.016L23.788,20.016z"/>
<g>
	<g>
		<path fill="#FFFFFF" d="M17.054,15.965c-0.746-0.286-1.192,0.177-1.315,0.336c-0.012,0.017-0.023,0.032-0.036,0.049
			C15.7,16.351,15.7,16.351,15.7,16.351c-0.09,0.124-0.181,0.233-0.273,0.331c-0.45,0.475-0.879,0.712-1.282,0.712
			c-0.179,0-0.315-0.054-0.411-0.159c-0.096-0.107-0.142-0.233-0.142-0.377c0-0.117,0.022-0.225,0.071-0.32l3.511-10.159
			c0.105-0.321,0.135-0.608,0.089-0.864c-0.048-0.255-0.146-0.467-0.293-0.634c-0.15-0.166-0.331-0.281-0.545-0.347
			c-0.213-0.065-0.434-0.065-0.66,0c-0.225,0.065-0.438,0.202-0.641,0.41c-0.202,0.208-0.363,0.502-0.481,0.882l-1.426,4.118
			c-0.273-0.297-0.596-0.529-0.971-0.696c-0.375-0.167-0.77-0.249-1.185-0.249c-0.285,0-0.576,0.041-0.874,0.124
			C9.89,9.207,9.614,9.332,9.359,9.498c-0.256,0.166-0.488,0.377-0.695,0.633c-0.208,0.255-0.372,0.549-0.49,0.882l-1.658,4.687
			c-0.06,0.168-0.104,0.338-0.134,0.509c-0.03,0.172-0.044,0.343-0.044,0.507c0,0.394,0.074,0.753,0.221,1.08
			c0.148,0.326,0.351,0.605,0.606,0.838c0.256,0.231,0.552,0.408,0.891,0.534c0.339,0.125,0.698,0.187,1.078,0.187
			c0.405,0,0.813-0.069,1.23-0.213c0.416-0.143,0.802-0.368,1.158-0.677c0.274,0.32,0.618,0.575,1.036,0.767
			c0.414,0.188,0.854,0.284,1.317,0.284c0.438,0,0.891-0.082,1.354-0.248c0.464-0.167,0.915-0.44,1.354-0.82
			c0.326-0.283,0.638-0.625,0.938-1.026C17.776,17.024,17.72,16.222,17.054,15.965z M11.72,13.526l-0.642,1.835
			c-0.131,0.333-0.273,0.598-0.427,0.794c-0.155,0.196-0.303,0.342-0.446,0.437c-0.143,0.095-0.276,0.155-0.401,0.178
			c-0.125,0.025-0.229,0.025-0.312,0c-0.143-0.036-0.247-0.104-0.312-0.206c-0.065-0.099-0.104-0.212-0.117-0.338
			c-0.012-0.125-0.006-0.248,0.018-0.375c0.024-0.124,0.054-0.234,0.09-0.329l0.927-2.763c0.143-0.38,0.288-0.656,0.437-0.828
			c0.148-0.172,0.287-0.285,0.419-0.34c0.129-0.054,0.239-0.072,0.329-0.054c0.089,0.019,0.14,0.033,0.15,0.046
			c0.012,0,0.06,0.02,0.143,0.061c0.084,0.043,0.161,0.131,0.231,0.268c0.071,0.138,0.11,0.334,0.117,0.59
			C11.93,12.757,11.863,13.097,11.72,13.526z"/>
	</g>
</g>
</svg>
